<?xml version="1.0" standalone="yes"?>
<!DOCTYPE svg PUBLIC "-//W3C//DTD SVG 20010904//EN"
 "http://www.w3.org/TR/2001/REC-SVG-20010904/DTD/svg10.dtd">
<svg version="1.0" xmlns="http://www.w3.org/2000/svg"
 width="985.000000pt" height="897.000000pt" viewBox="0 0 985.000000 897.000000"
 preserveAspectRatio="xMidYMid meet">

<g transform="translate(0.000000,897.000000) scale(0.100000,-0.100000)"
fill="#000000" stroke="none">
<path d="M0 4485 l0 -4485 4925 0 4925 0 0 4485 0 4485 -4925 0 -4925 0 0
-4485z m6378 3866 c185 -127 478 -325 650 -441 l312 -211 0 -910 0 -909 -110
0 -110 0 0 853 0 854 -432 295 c-238 163 -436 292 -441 289 -4 -4 -6 -1087 -5
-2407 l3 -2399 255 0 255 0 3 1203 2 1202 620 0 620 0 0 -1189 c0 -654 3
-1196 6 -1205 5 -13 23 -16 90 -16 l84 0 0 -105 0 -105 -3215 0 -3215 0 0 105
0 105 84 0 c67 0 85 3 90 16 3 9 6 551 6 1205 l0 1189 620 0 620 0 2 -1202 3
-1203 240 0 240 0 3 1538 2 1537 375 0 375 0 0 -105 0 -105 -270 0 -270 0 2
-1432 3 -1433 303 -3 302 -2 0 2315 0 2315 548 -2 547 -3 0 -440 0 -440 -107
-3 -108 -3 0 341 0 340 -330 0 -330 0 0 -2210 0 -2210 135 0 135 0 0 1820 0
1820 500 0 500 0 0 -110 0 -110 -390 0 -390 0 0 -1710 0 -1710 150 0 150 0 0
1680 0 1680 110 0 110 0 2 -1677 3 -1678 155 0 155 0 3 2608 c1 1434 4 2607 7
2607 3 0 157 -103 343 -229z m-2518 -791 l0 -1010 -105 0 -105 0 0 806 c0 674
-2 805 -14 802 -7 -2 -207 -135 -445 -297 l-431 -294 0 -854 0 -853 -105 0
-105 0 0 913 0 912 653 443 c358 243 653 442 655 442 1 0 2 -454 2 -1010z
m-530 -385 l0 -405 -125 0 -125 0 2 323 3 322 120 82 c66 45 121 82 123 82 1
1 2 -181 2 -404z m3363 313 l117 -78 0 -320 0 -320 -130 0 -130 0 0 406 c0
321 3 404 13 398 6 -4 65 -43 130 -86z m-3363 -1178 l0 -230 -125 0 -125 0 0
230 0 230 125 0 125 0 0 -230z m3480 0 l0 -230 -130 0 -130 0 0 223 c0 123 3
227 7 230 3 4 62 7 130 7 l123 0 0 -230z m-1580 -4125 c34 -18 77 -64 89 -98
6 -16 11 -52 11 -80 0 -128 -108 -208 -245 -183 -39 8 -99 55 -119 95 -58 114
5 251 129 282 36 9 101 1 135 -16z m1994 11 c31 -13 66 -49 66 -68 0 -5 -14
-17 -32 -28 -27 -16 -35 -17 -48 -6 -22 20 -53 27 -69 17 -24 -15 -4 -38 48
-56 95 -31 135 -88 111 -161 -17 -49 -60 -74 -131 -74 -60 0 -108 24 -136 66
-13 20 -11 23 21 44 l36 22 26 -21 c31 -24 76 -27 93 -7 15 17 -7 34 -82 61
-60 23 -87 55 -87 107 0 50 13 74 53 98 38 23 85 25 131 6z m-4374 -11 c63
-33 81 -138 34 -194 -25 -31 -76 -51 -126 -51 -27 0 -28 -1 -28 -61 l0 -60
-42 3 -43 3 -3 188 -2 187 90 0 c62 0 100 -5 120 -15z m318 1 c63 -34 81 -125
37 -190 l-25 -36 35 -63 c19 -35 35 -67 35 -70 0 -4 -22 -7 -49 -7 l-50 0 -32
60 c-25 47 -37 60 -55 60 -21 0 -23 -5 -26 -57 l-3 -58 -42 -3 -43 -3 0 190 0
191 98 0 c59 -1 106 -6 120 -14z m202 -177 l0 -190 -42 3 -43 3 -3 175 c-1 96
0 180 2 187 3 8 22 13 46 13 l40 0 0 -191z m212 116 c23 -41 47 -73 53 -72 5
2 29 36 53 75 43 72 44 72 88 72 l44 0 0 -191 0 -190 -42 3 -43 3 -5 95 -5 95
-19 -30 c-11 -16 -30 -47 -43 -68 -13 -21 -28 -35 -33 -32 -5 3 -25 32 -45 65
-20 33 -41 60 -46 60 -5 0 -9 -43 -9 -96 l0 -95 -42 3 -43 3 -3 175 c-1 96 0
180 2 187 3 8 23 13 50 13 l44 0 44 -75z m548 30 l0 -45 -70 0 c-68 0 -70 -1
-70 -25 0 -24 2 -25 65 -25 l65 0 0 -45 0 -45 -65 0 -65 0 0 -30 0 -30 70 0
70 0 0 -45 0 -46 -117 3 -118 3 -1 180 c-1 99 0 183 3 188 2 4 56 7 119 7
l114 0 0 -45z m407 25 c108 -66 66 -218 -66 -236 l-50 -6 -3 -57 -3 -56 -42
-3 -43 -3 0 190 0 191 88 0 c69 0 94 -4 119 -20z m321 0 c62 -38 77 -125 32
-183 -11 -14 -20 -30 -20 -36 0 -6 16 -40 36 -76 l36 -65 -54 0 -54 0 -34 60
c-26 46 -39 60 -57 60 -21 0 -23 -4 -23 -60 l0 -60 -45 0 -45 0 0 190 0 190
98 0 c80 0 103 -4 130 -20z m743 -16 c42 -42 51 -108 20 -157 -23 -38 -54 -55
-117 -64 l-44 -6 0 -58 0 -59 -45 0 -45 0 0 191 0 191 100 -4 c96 -3 101 -4
131 -34z m309 -9 l0 -45 -70 0 c-68 0 -70 -1 -70 -25 0 -24 2 -25 65 -25 l65
0 0 -45 0 -45 -65 0 -65 0 0 -30 0 -29 73 -3 72 -3 0 -40 0 -40 -117 -3 -118
-3 0 191 0 190 115 0 115 0 0 -45z m284 24 c61 -48 72 -135 25 -186 l-24 -24
35 -66 c19 -37 37 -71 39 -75 1 -5 -21 -8 -50 -6 -53 3 -53 3 -84 58 -24 43
-37 56 -58 58 -27 3 -27 3 -27 -58 l0 -61 -42 3 -43 3 -3 188 -2 187 103 0
c91 0 108 -3 131 -21z m364 -21 l-3 -43 -47 -3 -48 -3 0 -145 0 -145 -42 3
-43 3 -3 143 -3 142 -44 0 -45 0 0 45 0 45 141 0 140 0 -3 -42z m132 -148 l0
-190 -45 0 -45 0 0 190 0 190 45 0 45 0 0 -190z m308 148 l-3 -43 -72 -3 c-70
-3 -73 -4 -73 -27 0 -24 3 -25 65 -25 l65 0 0 -45 0 -45 -65 0 -65 0 0 -30 0
-30 75 0 75 0 0 -45 0 -45 -120 0 -120 0 0 190 0 190 121 0 120 0 -3 -42z
m-1342 -993 c37 -18 67 -42 89 -74 19 -25 35 -49 35 -53 0 -5 -105 -69 -141
-86 -3 -1 -22 13 -42 33 -25 25 -44 35 -67 35 -45 0 -70 -16 -70 -46 0 -26 32
-45 153 -89 121 -43 187 -121 187 -219 -1 -136 -102 -220 -265 -219 -88 1
-150 19 -202 59 -39 30 -88 99 -79 112 7 12 124 82 136 82 5 0 17 -11 26 -26
23 -34 65 -54 116 -54 53 0 88 22 88 55 0 30 -24 46 -115 75 -92 30 -123 46
-163 84 -121 114 -58 312 113 357 53 14 143 3 201 -26z m-3231 -4 c153 -69
191 -266 77 -393 l-36 -39 27 -52 c14 -29 47 -89 72 -135 l47 -83 -103 3 -103
3 -64 113 -63 112 -39 0 -39 0 -3 -112 -3 -113 -87 -3 -88 -3 0 361 0 360 183
0 c155 0 188 -3 222 -19z m693 -63 l-3 -83 -137 -3 -138 -3 0 -49 0 -50 125 0
125 0 0 -80 0 -80 -112 0 c-62 0 -119 -4 -126 -9 -9 -5 -12 -25 -10 -62 l3
-54 138 -3 137 -3 0 -79 0 -80 -230 0 -230 0 0 360 0 360 230 0 231 0 -3 -82z
m638 -269 c71 -194 131 -356 132 -360 2 -5 -39 -9 -91 -9 l-95 0 -22 60 -22
60 -127 0 -127 0 -21 -57 -20 -58 -95 -3 -96 -3 132 361 131 360 96 0 96 0
129 -351z m364 71 l0 -280 140 0 140 0 0 -80 0 -80 -230 0 -230 0 0 360 0 360
90 0 90 0 0 -280z m1078 198 l-3 -83 -137 -3 -138 -3 0 -49 0 -49 128 -3 127
-3 3 -77 3 -78 -118 0 c-65 0 -124 -4 -131 -9 -9 -5 -12 -25 -10 -62 l3 -54
143 -3 142 -3 0 -79 0 -80 -235 0 -235 0 0 354 c1 194 4 356 7 360 4 3 107 6
230 6 l224 0 -3 -82z m1152 -3 l0 -85 -90 0 -90 0 0 -275 0 -275 -85 0 -85 0
0 275 0 274 -92 3 -93 3 -3 83 -3 82 271 0 270 0 0 -85z m511 -265 c71 -190
128 -351 128 -358 1 -10 -21 -12 -90 -10 l-91 3 -22 55 -22 55 -126 3 -127 3
-22 -61 -22 -60 -94 0 c-72 0 -94 3 -90 13 2 6 59 163 127 347 67 184 125 341
127 348 4 9 30 12 101 10 l96 -3 127 -345z m577 268 l-3 -83 -92 -3 -93 -3 0
-274 0 -275 -85 0 -85 0 0 275 0 274 -87 3 -88 3 -3 83 -3 82 271 0 271 0 -3
-82z m500 0 l-3 -83 -137 -3 -138 -3 0 -49 0 -50 125 0 125 0 0 -80 0 -79
-122 -3 -123 -3 -3 -62 -3 -63 141 0 140 0 0 -80 0 -80 -225 0 -225 0 0 360 0
360 225 0 226 0 -3 -82z"/>
<path d="M2145 5548 c-3 -7 -4 -501 -3 -1098 l3 -1085 405 0 405 0 0 1095 0
1095 -403 3 c-317 2 -404 0 -407 -10z m495 -558 l0 -260 -95 0 -95 0 0 260 0
260 95 0 95 0 0 -260z"/>
<path d="M6975 5548 c-3 -7 -4 -501 -3 -1098 l3 -1085 405 0 405 0 0 1095 0
1095 -403 3 c-317 2 -404 0 -407 -10z m505 -558 l0 -260 -95 0 -95 0 0 260 0
260 95 0 95 0 0 -260z"/>
<path d="M5071 2079 c-64 -63 -17 -169 74 -169 36 0 95 59 95 95 0 93 -104
139 -169 74z"/>
<path d="M2732 2073 c3 -32 7 -38 29 -41 14 -2 36 6 50 17 34 28 16 55 -40 59
l-42 3 3 -38z"/>
<path d="M3042 2073 c3 -34 6 -38 34 -41 19 -2 39 4 55 17 36 29 16 55 -45 59
l-47 3 3 -38z"/>
<path d="M4420 2070 c0 -31 4 -40 18 -40 35 0 62 13 67 32 9 28 -12 48 -51 48
-33 0 -34 -1 -34 -40z"/>
<path d="M4722 2073 c3 -34 6 -38 34 -41 19 -2 39 4 55 17 36 29 16 55 -45 59
l-47 3 3 -38z"/>
<path d="M5462 2073 c3 -32 7 -38 28 -41 38 -4 64 19 56 51 -6 24 -11 27 -47
27 l-40 0 3 -37z"/>
<path d="M6054 2096 c-3 -8 -4 -25 -2 -38 2 -18 10 -24 35 -26 47 -5 75 14 71
46 -3 25 -7 27 -51 30 -35 2 -49 -1 -53 -12z"/>
<path d="M2198 988 c-2 -13 -2 -47 0 -75 l4 -53 73 0 c90 0 125 21 125 76 0
57 -26 74 -119 74 -74 0 -79 -1 -83 -22z"/>
<path d="M3501 843 c-13 -38 -26 -74 -29 -80 -3 -10 12 -13 57 -13 34 0 61 4
61 9 0 17 -52 151 -59 151 -3 0 -17 -30 -30 -67z"/>
<path d="M6625 890 c-8 -13 -45 -121 -45 -132 0 -4 27 -8 61 -8 45 0 60 3 56
13 -2 6 -14 40 -27 75 -22 60 -32 72 -45 52z"/>
</g>
</svg>
